{"title":"Tom Stade Live 2013 DVDRiP X264 AC3 MURDER","uid":9224321,"size":617471382,"categoryP":"video","categoryS":"movies","magnet":"?xt=urn:btih:5724ecf291432158577207bd9cbcbd2edc8d3410&amp;dn=Tom+Stade+Live+2013+DVDRiP+X264+AC3+MURDER&amp;tr=udp%3A%2F%2Ftracker.openbittorrent.com%3A80&amp;tr=udp%3A%2F%2Fopen.demonii.com%3A1337&amp;tr=udp%3A%2F%2Ftracker.coppersurfer.tk%3A6969&amp;tr=udp%3A%2F%2Fexodus.desync.com%3A6969","seeders":0,"leechers":3,"uploader":".BONE.","files":6,"time":1384984685,"description":"General\nComplete name : Tom Stade Live 2013 DVDRiP X264 AC3 MURDER.mkv\nFormat : Matroska\nFormat version : Version 2\nFile size : 588 MiB\nDuration : 1h 19mn\nOverall bit rate : 1 029 Kbps\nEncoded date : UTC 2013-11-19 16:48:18\nWriting application : mkvmerge v6.2.0 ('Promised Land') built on Apr 28 2013 12:22:01\nWriting library : libebml v1.3.0 + libmatroska v1.4.0\n\nVideo\nID : 1\nFormat : AVC\nFormat/Info : Advanced Video Codec\nFormat profile : &lt;a class=&quot;__cf_email__&quot; href=&quot;/cdn-cgi/l/email-protection&quot; data-cfemail=&quot;a3ebcac4cbe3ef908d92&quot;&gt;[email&amp;#160;protected]&lt;/a&gt;&lt;script cf-hash='f9e31' type=&quot;text/javascript&quot;&gt;\n/* &lt;![CDATA[ */!function(){try{var t=&quot;currentScript&quot;in document?document.currentScript:function(){for(var t=document.getElementsByTagName(&quot;script&quot;),e=t.length;e--;)if(t[e].getAttribute(&quot;cf-hash&quot;))return t[e]}();if(t&amp;&amp;t.previousSibling){var e,r,n,i,c=t.previousSibling,a=c.getAttribute(&quot;data-cfemail&quot;);if(a){for(e=&quot;&quot;,r=parseInt(a.substr(0,2),16),n=2;a.length-n;n+=2)i=parseInt(a.substr(n,2),16)^r,e+=String.fromCharCode(i);e=document.createTextNode(e),c.parentNode.replaceChild(e,c)}}}catch(u){}}();/* ]]&gt; */&lt;/script&gt;\nFormat settings, CABAC : Yes\nFormat settings, ReFrames : 5 frames\nCodec ID : V_MPEG4/ISO/AVC\nDuration : 1h 19mn\nBit rate : 817 Kbps\nWidth : 716 pixels\nHeight : 396 pixels\nDisplay aspect ratio : 16:9\nFrame rate mode : Constant\nFrame rate : 25.000 fps\nColor space : YUV\nChroma subsampling : 4:2:0\nBit depth : 8 bits\nScan type : Progressive\nBits/(Pixel*Frame) : 0.115\nStream size : 466 MiB (79%)\nWriting library : x264 core\nDefault : Yes\nForced : No\n\nAudio\nID : 2\nFormat : AC-3\nFormat/Info : Audio Coding 3\nMode extension : CM (complete main)\nFormat settings, Endianness : Big\nCodec ID : A_AC3\nDuration : 1h 19mn\nBit rate mode : Constant\nBit rate : 192 Kbps\nChannel count : 2 channels\nChannel positions : Front: L R\nSampling rate : 48.0 KHz\nBit depth : 16 bits\nCompression mode : Lossy\nStream size : 110 MiB (19%)\nLanguage : English\nDefault : Yes\nForced : No","torrent":{"xt":"urn:btih:5724ecf291432158577207bd9cbcbd2edc8d3410","amp;dn":"Tom+Stade+Live+2013+DVDRiP+X264+AC3+MURDER","amp;tr":["udp%3A%2F%2Ftracker.openbittorrent.com%3A80","udp%3A%2F%2Fopen.demonii.com%3A1337","udp%3A%2F%2Ftracker.coppersurfer.tk%3A6969","udp%3A%2F%2Fexodus.desync.com%3A6969"],"infoHash":"5724ecf291432158577207bd9cbcbd2edc8d3410","infoHashBuffer":{"type":"Buffer","data":[87,36,236,242,145,67,33,88,87,114,7,189,156,188,189,46,220,141,52,16]},"announce":[],"urlList":[]}}